<?xml version="1.0" standalone="no"?>
<!DOCTYPE svg PUBLIC "-//W3C//DTD SVG 20010904//EN"
 "http://www.w3.org/TR/2001/REC-SVG-20010904/DTD/svg10.dtd">
<svg version="1.0" xmlns="http://www.w3.org/2000/svg"
 width="300.000000pt" height="300.000000pt" viewBox="0 0 300.000000 300.000000"
 preserveAspectRatio="xMidYMid meet">
<metadata>
Created by potrace 1.11, written by Peter Selinger 2001-2013
</metadata>
<g transform="translate(0.000000,300.000000) scale(0.100000,-0.100000)"
fill="#000000" stroke="none">
<path d="M969 2176 c-2 -2 -24 -7 -49 -10 -81 -10 -112 -15 -214 -36 -126 -26
-176 -41 -176 -52 0 -4 3 -7 8 -6 4 1 27 -2 52 -6 25 -5 56 -10 70 -12 14 -3
48 -9 75 -14 28 -5 67 -12 89 -15 21 -3 41 -7 45 -9 3 -2 26 -7 51 -10 25 -3
55 -8 68 -11 57 -13 68 -15 102 -20 19 -3 64 -7 100 -10 90 -7 68 9 -73 50
-182 54 -202 68 -117 79 193 26 406 24 560 -3 30 -6 66 -12 80 -15 14 -2 57
-12 95 -21 39 -9 80 -19 92 -21 12 -2 34 -9 48 -14 14 -5 25 -7 25 -4 0 2 8 0
18 -5 17 -9 33 -12 122 -26 44 -7 44 -7 23 9 -45 33 -260 116 -337 130 -14 3
-34 7 -44 10 -20 6 -65 15 -107 21 -16 3 -41 8 -55 11 -28 8 -544 17 -551 10z"/>
<path d="M112 2052 c-21 -3 -23 -8 -19 -48 3 -32 -2 -53 -16 -76 -34 -57 -68
-178 -49 -178 4 0 17 10 28 23 72 76 270 121 541 122 62 0 113 3 113 8 0 4
-24 7 -52 8 -29 0 -111 2 -183 5 -72 3 -160 6 -197 8 -37 1 -70 4 -73 7 -12
13 36 40 81 47 104 14 413 8 574 -13 153 -19 173 -23 218 -35 17 -4 32 -5 32
0 0 9 -21 17 -57 24 -10 2 -36 9 -58 15 -22 5 -53 13 -70 15 -16 3 -41 8 -55
11 -55 13 -248 45 -305 51 -64 7 -414 11 -453 6z"/>
<path d="M2017 1944 c-1 -1 -74 -5 -162 -9 -88 -3 -182 -8 -210 -11 -95 -7
-260 -7 -340 0 -54 5 -77 4 -70 -2 24 -24 198 -34 675 -38 272 -2 513 -5 535
-8 22 -3 65 -8 95 -11 77 -8 115 -14 190 -31 39 -9 100 -14 155 -12 l90 3 -57
22 c-32 12 -68 25 -80 27 -208 43 -277 53 -443 62 -90 5 -374 11 -378 8z"/>
<path d="M726 1898 c3 -4 9 -8 15 -8 5 0 9 4 9 8 0 5 -7 9 -15 9 -8 0 -12 -4
-9 -9z"/>
<path d="M176 1762 c-3 -2 0 -12 6 -21 8 -14 2 -44 -27 -132 -20 -63 -38 -118
-39 -123 -2 -13 123 -14 133 -1 5 5 23 56 41 113 18 56 36 103 39 103 25 5 93
3 97 -2 2 -3 -12 -53 -31 -110 -19 -56 -35 -106 -35 -109 0 -4 108 -6 131 -1
3 1 21 47 39 104 19 56 37 107 42 113 8 11 83 12 94 2 5 -5 -31 -125 -63 -213
-5 -14 123 -13 135 0 18 20 73 215 67 235 -14 43 -43 47 -342 47 -156 0 -285
-2 -287 -5z"/>
<path d="M869 1754 c-6 -7 -25 -60 -44 -119 -31 -100 -32 -107 -16 -126 23
-29 71 -35 241 -34 141 2 209 13 236 40 19 18 75 205 69 226 -4 11 -9 20 -13
21 -4 1 -109 2 -235 3 -174 1 -230 -1 -238 -11z m341 -60 c0 -24 -44 -144 -53
-145 -41 -5 -217 -3 -217 2 0 5 29 94 45 137 3 8 36 12 115 12 60 0 110 -3
110 -6z"/>
<path d="M1370 1760 c0 -19 62 -45 130 -54 19 -2 36 -5 37 -5 1 -1 -14 -47
-33 -103 -19 -56 -33 -107 -31 -112 2 -6 31 -11 65 -11 l61 -1 21 61 c61 174
59 171 87 173 32 3 96 33 100 48 3 8 -62 11 -217 11 -121 0 -220 -3 -220 -7z"/>
<path d="M1845 1756 c-15 -11 -75 -201 -75 -237 0 -33 73 -45 254 -43 223 2
229 5 273 134 37 109 40 136 16 148 -26 14 -450 11 -468 -2z m330 -88 c-4 -18
-15 -53 -24 -78 l-17 -45 -112 0 c-62 0 -112 1 -112 2 0 2 9 31 21 65 11 35
22 69 24 76 3 9 35 12 115 12 l112 0 -7 -32z"/>
<path d="M2355 1739 c4 -19 -5 -64 -29 -138 -20 -60 -36 -113 -36 -118 0 -5
27 -8 60 -8 68 0 81 9 99 73 8 28 17 42 29 42 31 0 269 -121 392 -199 60 -38
-70 102 -158 170 l-34 26 52 6 c65 8 97 28 116 72 16 38 5 78 -25 91 -9 4
-119 9 -244 10 l-228 1 6 -28z m360 -41 c4 -3 2 -15 -4 -26 -9 -17 -22 -19
-116 -19 -95 -1 -105 1 -105 18 0 10 7 22 14 26 18 10 201 11 211 1z"/>
<path d="M659 1389 c-20 -12 -79 -230 -68 -250 14 -27 65 -33 250 -32 215 0
258 18 271 113 5 40 -49 61 -162 61 -85 0 -96 -2 -134 -28 l-41 -28 90 -3 c94
-3 116 -11 96 -36 -9 -11 -39 -15 -123 -15 -101 -1 -110 0 -103 16 3 10 16 46
27 79 l20 62 107 4 c83 2 115 8 146 24 22 12 39 25 38 30 -3 10 -398 14 -414
3z"/>
<path d="M1175 1376 c12 -18 9 -36 -26 -141 -21 -66 -39 -123 -39 -126 0 -3
30 -5 67 -4 l67 1 19 58 c18 54 21 57 46 51 45 -11 161 -67 283 -136 110 -63
134 -66 74 -10 -14 13 -23 27 -21 31 2 4 27 6 54 5 28 -1 54 1 59 4 7 5 55
142 87 247 8 27 -15 37 -89 40 l-76 3 14 -22 c13 -20 10 -35 -26 -144 l-40
-122 -61 52 -62 52 44 7 c68 11 98 27 116 64 19 40 11 80 -19 97 -14 8 -93 12
-253 13 l-231 1 13 -21z m359 -54 c-1 -6 -2 -18 -2 -25 -3 -21 -212 -20 -220
1 -10 27 23 37 124 37 73 0 99 -3 98 -13z"/>
<path d="M1896 1379 c14 -16 14 -24 -12 -106 -15 -48 -29 -94 -30 -102 -1 -7
-12 -23 -23 -35 -12 -12 -21 -24 -21 -27 0 -11 446 -2 481 10 53 17 66 36 99
147 26 88 28 100 14 114 -12 13 -57 15 -270 16 -243 1 -254 0 -238 -17z m358
-101 c-32 -112 -21 -104 -137 -102 -56 0 -107 2 -113 2 -10 2 20 111 39 140 6
8 41 12 117 12 l109 0 -15 -52z"/>
<path d="M516 883 c-9 -26 -16 -48 -16 -50 0 -2 40 -3 90 -3 l89 0 11 40 c6
22 8 45 5 50 -3 6 -41 10 -85 10 l-78 0 -16 -47z m134 17 c0 -5 -18 -10 -41
-10 -24 0 -38 4 -34 10 3 6 22 10 41 10 19 0 34 -4 34 -10z m-15 -40 c-3 -5
-22 -10 -41 -10 -19 0 -34 5 -34 10 0 6 18 10 41 10 24 0 38 -4 34 -10z"/>
<path d="M933 924 c3 -4 0 -22 -8 -41 -8 -20 -15 -39 -15 -44 0 -11 50 -12 50
-1 0 4 4 13 9 20 6 11 21 7 71 -17 69 -34 86 -35 46 -3 -29 22 -33 32 -13 32
8 0 21 8 30 18 28 31 3 42 -92 42 -46 0 -82 -3 -78 -6z m127 -24 c0 -5 -18
-10 -41 -10 -24 0 -38 4 -34 10 3 6 22 10 41 10 19 0 34 -4 34 -10z"/>
<path d="M1328 880 l-16 -50 24 0 c14 0 27 7 30 15 4 10 20 15 46 15 32 0 39
-3 34 -15 -4 -11 1 -15 18 -15 13 0 29 7 36 15 7 8 9 15 6 15 -4 0 -2 9 4 21
20 36 -3 49 -89 49 l-77 0 -16 -50z m132 16 c0 -10 -11 -13 -37 -11 -47 3 -46
3 -38 15 10 16 75 12 75 -4z"/>
<path d="M1753 915 c-33 -23 -19 -45 28 -45 21 0 39 -4 39 -10 0 -5 -21 -10
-46 -10 -27 0 -43 -4 -39 -10 10 -17 111 -12 130 6 24 25 13 39 -33 42 -59 4
-53 22 7 22 28 0 53 5 56 10 10 17 -117 12 -142 -5z"/>
<path d="M2123 918 c2 -7 -2 -27 -10 -45 -17 -42 -17 -43 11 -43 20 0 27 8 39
44 8 25 13 47 9 50 -11 12 -54 6 -49 -6z"/>
<path d="M2402 925 c3 -4 0 -25 -8 -47 -8 -22 -14 -42 -14 -44 0 -2 37 -4 83
-4 56 0 77 3 67 10 -8 5 -32 10 -54 10 -37 0 -38 1 -31 27 3 15 7 32 8 38 1 5
-11 12 -28 13 -16 2 -27 1 -23 -3z"/>
<path d="M4 881 c6 -9 412 -9 421 0 3 4 -91 7 -210 7 -118 0 -213 -3 -211 -7z"/>
<path d="M2596 882 c-2 -4 9 -8 25 -8 16 -1 29 2 29 7 0 11 -47 12 -54 1z"/>
<path d="M2660 882 c0 -4 76 -7 170 -8 93 0 167 2 165 6 -6 9 -335 10 -335 2z"/>
</g>
</svg>
